HIERARCHY
ROOT Hips
{
	OFFSET -3.958830 18.904000 13.208200
	CHANNELS 6 Xposition Yposition Zposition Zrotation Yrotation Xrotation 
	JOINT LHipJoint
	{
		OFFSET 0.000000 0.000000 0.000000
		CHANNELS 3 Zrotation Yrotation Xrotation
		JOINT LeftUpLeg
		{
			OFFSET 1.800000 -1.400000 0.085000
			CHANNELS 3 Zrotation Yrotation Xrotation
			JOINT LeftLeg
			{
				OFFSET 2.215000 -6.000000 0.000000
				CHANNELS 3 Zrotation Yrotation Xrotation
				JOINT LeftFoot
				{
					OFFSET 2.500000 -6.900000 0.000000
					CHANNELS 3 Zrotation Yrotation Xrotation
					JOINT LeftToeBase
					{
						OFFSET 0.200000 -0.500000 1.950000
						CHANNELS 3 Zrotation Yrotation Xrotation
						End Site
						{
							OFFSET 0.000000 0.000000 0.000000
						}
					}
				}
			}
		}
	}
	JOINT RHipJoint
	{
		OFFSET 0.000000 0.000000 0.000000
		CHANNELS 3 Zrotation Yrotation Xrotation
		JOINT RightUpLeg
		{
			OFFSET -1.800000 -1.400000 0.085000
			CHANNELS 3 Zrotation Yrotation Xrotation
			JOINT RightLeg
			{
				OFFSET -2.215000 -6.000000 0.000000
				CHANNELS 3 Zrotation Yrotation Xrotation
				JOINT RightFoot
				{
					OFFSET -2.500000 -6.900000 0.000000
					CHANNELS 3 Zrotation Yrotation Xrotation
					JOINT RightToeBase
					{
						OFFSET -0.200000 -0.500000 1.950000
						CHANNELS 3 Zrotation Yrotation Xrotation
						End Site
						{
							OFFSET 0.000000 0.000000 0.000000
						}
					}
				}
			}
		}
	}
	JOINT LowerBack
	{
		OFFSET 0.000000 0.000000 0.000000
		CHANNELS 3 Zrotation Yrotation Xrotation
		JOINT Spine
		{
			OFFSET -0.087000 1.940000 -0.288900
			CHANNELS 3 Zrotation Yrotation Xrotation
			JOINT Spine1
			{
				OFFSET 0.000000 1.950000 0.060000
				CHANNELS 3 Zrotation Yrotation Xrotation
				JOINT Neck
				{
					OFFSET 0.000000 0.000000 0.000000
					CHANNELS 3 Zrotation Yrotation Xrotation
					JOINT Neck1
					{
						OFFSET 0.000000 1.600000 0.340000
						CHANNELS 3 Zrotation Yrotation Xrotation
						JOINT Head
						{
							OFFSET 0.000000 1.667000 -0.240000
							CHANNELS 3 Zrotation Yrotation Xrotation
							End Site
							{
								OFFSET 0.000000 0.000000 0.000000
							}
						}
					}
				}
				JOINT LeftShoulder
				{
					OFFSET 0.000000 0.000000 0.000000
					CHANNELS 3 Zrotation Yrotation Xrotation
					JOINT LeftArm
					{
						OFFSET 2.700000 1.550000 -0.730000
						CHANNELS 3 Zrotation Yrotation Xrotation
						JOINT LeftForeArm
						{
							OFFSET 5.450000 0.000000 0.000000
							CHANNELS 3 Zrotation Yrotation Xrotation
							JOINT LeftHand
							{
								OFFSET 3.450000 0.000000 0.000000
								CHANNELS 3 Zrotation Yrotation Xrotation
								JOINT LeftHandIndex1
								{
									OFFSET 0.750000 0.000000 0.000000
									CHANNELS 3 Zrotation Yrotation Xrotation
									End Site
									{
										OFFSET 0.000000 0.000000 0.000000
									}
								}
							}
						}
					}
				}
				JOINT RightShoulder
				{
					OFFSET 0.000000 0.000000 0.000000
					CHANNELS 3 Zrotation Yrotation Xrotation
					JOINT RightArm
					{
						OFFSET -2.700000 1.550000 -0.730000
						CHANNELS 3 Zrotation Yrotation Xrotation
						JOINT RightForeArm
						{
							OFFSET -5.450000 0.000000 0.000000
							CHANNELS 3 Zrotation Yrotation Xrotation
							JOINT RightHand
							{
								OFFSET -3.450000 0.000000 0.000000
								CHANNELS 3 Zrotation Yrotation Xrotation
								JOINT RightHandIndex1
								{
									OFFSET -0.750000 0.000000 0.000000
									CHANNELS 3 Zrotation Yrotation Xrotation
									End Site
									{
										OFFSET 0.000000 0.000000 0.000000
									}
								}
							}
						}
					}
				}
			}
		}
	}
}
MOTION
Frames: 8
Frame Time: 0.016667
0.396170 15.385160 -3.149390 11.789320 -24.151995 4.927213 -15.667479 10.131027 3.785098 22.896840 -5.089968 -25.177839 -26.124897 23.929060 42.327204 1.540447 11.705750 0.536101 0.072940 -0.058290 0.122780 18.619647 -5.498532 7.371500 -43.851319 -0.759670 -63.456400 57.829384 -20.766974 23.964207 -1.470440 -9.342537 1.098124 -0.037010 0.039380 0.138130 -3.903361 -3.190033 -10.375246 27.849992 -12.478342 39.590063 -6.004843 -0.809011 5.487898 4.798907 1.617142 -13.953454 0.215060 -7.199056 34.937403 -4.275830 -4.631150 -0.598000 -22.228475 -20.184616 6.614966 -1.406507 -3.666081 -1.217323 5.469936 -7.947394 -0.164431 -3.861888 3.001973 0.063620 0.082000 -0.017170 0.022390 11.782605 19.608798 11.054163 -5.833506 -0.168074 -3.453042 -16.333983 6.536409 -0.818621 2.775845 -1.358779 0.001080 -0.046710 -0.021970 -0.046430 
0.341690 15.350800 -3.129720 12.777788 -25.442463 5.396113 -15.683804 10.066610 3.761611 22.283121 -5.207399 -25.180844 -26.825554 23.949025 41.853009 1.588717 11.646307 0.569639 0.090300 -0.026300 0.111250 18.619833 -5.422144 7.476201 -44.192830 -0.963177 -65.167944 58.092304 -21.368101 24.854013 -1.514495 -9.470493 1.074954 -0.032570 0.035970 0.133900 -3.919901 -3.170381 -10.396453 28.795318 -12.654954 39.970273 -5.945911 -0.484280 5.471775 4.568448 1.698941 -14.322962 0.524511 -8.270299 33.784086 -3.084400 -6.010490 -1.186860 -21.211713 -20.414002 6.663375 -0.075734 -3.704827 -1.290464 6.181165 -7.771527 -0.156063 -3.853659 3.003423 0.048150 0.065550 -0.009310 0.043070 11.181463 19.895469 11.515186 -5.954235 -0.448845 -3.141885 -14.768710 4.780484 -0.635246 2.835738 -1.324797 0.025140 -0.048190 -0.043170 -0.020540 
0.274870 15.315260 -3.087410 14.529796 -27.240922 5.610434 -15.705414 10.098837 3.670574 20.794222 -5.544496 -24.743137 -27.214926 23.517848 41.224449 1.620172 11.490655 0.643482 0.056880 -0.069730 0.085400 18.606244 -5.323826 7.624304 -44.616078 -1.569048 -67.345688 57.805784 -22.590661 26.616860 -1.563610 -9.720655 1.018194 -0.075210 0.040090 0.138240 -3.902478 -3.331792 -10.401221 30.585321 -13.597199 40.702451 -6.264868 -0.276283 5.158196 4.477637 1.647999 -15.360596 0.495144 -9.036845 32.921308 -3.041410 -6.643890 -0.494780 -19.712630 -21.286813 6.960198 2.822327 -3.403769 -1.538373 7.361255 -7.864374 -0.144384 -3.865304 2.986827 0.044660 0.062960 -0.010820 0.048070 9.806797 20.894351 12.558045 -6.443020 -1.301166 -2.889956 -12.575261 2.187959 -0.408656 2.931919 -1.238673 0.032220 -0.066590 -0.041720 -0.008990 
0.188370 15.294530 -3.020840 16.838940 -29.241077 5.680563 -15.707862 10.123372 3.535204 18.756414 -5.733582 -24.009219 -27.646605 23.043143 40.389449 1.620241 11.277695 0.718627 0.069750 -0.056270 0.099410 18.611902 -5.280857 7.750703 -45.074364 -2.079593 -69.218445 57.322756 -23.682733 28.248938 -1.615509 -9.928567 0.958621 -0.076340 0.018680 0.136330 -3.958159 -3.374721 -10.354241 32.936786 -14.693649 40.856283 -6.717728 -0.265948 5.169345 4.467308 1.183159 -15.565342 -0.075834 -9.464164 31.844731 -2.902270 -7.046050 -1.390810 -18.126611 -20.860105 7.056851 5.014238 -2.163743 -1.366091 6.430838 -8.658971 -0.003767 -3.827693 2.992825 0.049110 0.043900 0.001350 0.045540 8.269488 20.857960 12.668842 -7.774923 -0.882239 -2.790433 -10.749949 -0.252500 -0.333962 3.016934 -1.153660 0.045000 -0.073870 -0.052820 -0.008750 
0.085870 15.281230 -2.962610 19.970048 -31.579741 5.055588 -15.715414 10.174100 3.392235 16.355395 -5.895433 -23.005718 -28.041349 22.540792 39.535578 1.634019 11.041103 0.805883 0.060880 -0.072040 0.095260 18.609655 -5.244031 7.888785 -45.530625 -2.490117 -71.243731 56.182583 -24.821864 30.398535 -1.665664 -10.157267 0.892880 -0.102220 -0.004600 0.132360 -4.004674 -3.428013 -10.319437 34.783341 -15.658589 41.639451 -7.442303 -0.122560 4.855378 4.388165 0.852804 -16.009796 -0.637466 -10.069983 31.464892 -2.285510 -7.922960 -1.880760 -16.278113 -20.647118 7.194816 7.839230 -1.854256 -1.275552 5.917982 -6.613364 -0.002310 -3.843425 2.935558 0.066290 0.013960 0.016030 0.038790 6.641815 20.889479 13.040903 -8.847327 -1.708090 -2.717834 -9.556541 -0.389749 -0.292038 3.049923 -1.078815 0.056520 -0.087020 -0.053690 -0.006350 
-0.018330 15.302420 -2.887990 23.587774 -34.222422 4.159108 -15.730799 10.236345 3.264070 13.849349 -5.965475 -21.870832 -28.734459 21.820824 37.989404 1.599986 10.699880 0.914041 0.071790 -0.065090 0.112690 18.599304 -5.216707 7.999822 -45.571200 -2.636419 -73.391698 53.324457 -25.920404 33.493087 -1.709602 -10.403122 0.812472 -0.109130 -0.046840 0.125420 -4.045131 -3.494055 -10.269282 36.624763 -16.939674 42.547430 -8.222950 -0.271184 4.916716 4.470346 0.239247 -16.431186 -1.672068 -10.834402 31.009865 -2.264840 -8.784020 -3.401720 -13.986545 -20.311498 7.382467 10.046107 -1.381878 -1.175006 5.286865 -5.478185 -0.010588 -3.833080 2.874990 0.101850 -0.026700 0.044540 0.027760 4.280031 21.095238 13.257110 -10.143163 -1.491492 -2.897574 -8.887760 -0.851483 -0.285407 3.090768 -0.989655 0.063470 -0.090050 -0.059160 -0.015710 
-0.151650 15.352010 -2.816080 27.825131 -36.607071 2.442294 -15.732083 10.308211 3.131368 11.397080 -5.953186 -20.335298 -29.189938 20.935043 36.318802 1.535496 10.316581 1.035904 0.095820 -0.037360 0.125340 18.597107 -5.261421 8.065835 -45.255361 -2.604212 -74.834853 49.897665 -26.496085 36.450905 -1.729757 -10.586752 0.747069 -0.093560 -0.074230 0.110740 -4.140919 -3.443016 -10.171703 38.539361 -18.658651 43.720737 -9.697213 -0.654605 5.172484 4.656927 -0.660190 -16.581751 -3.187273 -11.040917 30.424852 -1.531660 -9.592890 -5.558720 -12.120983 -19.877513 7.192407 12.818552 -1.499989 -1.479567 7.113365 -4.582622 -0.111601 -3.845130 2.821366 0.137140 -0.065340 0.065720 0.024000 2.205361 21.214900 13.450446 -11.237929 -1.357387 -3.107425 -8.605111 -1.337999 -0.298917 3.120035 -0.911621 0.062010 -0.071550 -0.062220 -0.021460 
-0.307630 15.420610 -2.716450 32.167395 -38.215046 1.251076 -15.737331 10.386617 3.002536 9.039574 -5.974129 -19.374097 -28.717900 19.555233 34.618034 1.422276 9.775482 1.197599 0.109830 -0.025980 0.146770 18.598071 -5.292174 8.133032 -45.017344 -3.131375 -76.276507 45.760345 -27.119633 39.696835 -1.750170 -10.785781 0.674199 -0.098250 -0.120650 0.104490 -4.207669 -3.457800 -10.086397 40.848713 -20.666962 44.189390 -11.207970 -0.987512 4.715039 4.833638 -1.371747 -16.739338 -4.424257 -12.131235 29.780811 -1.625260 -10.713840 -7.968750 -9.924778 -19.233667 6.940109 15.899881 -1.471834 -1.661269 6.928259 -3.738868 -0.153529 -3.838532 2.740957 0.184630 -0.112370 0.103500 0.011920 -0.214053 21.082695 13.668866 -12.240571 -1.416270 -3.236982 -7.439147 -1.818526 -0.306321 3.154550 -0.783634 0.067350 -0.063370 -0.065210 -0.032540 
